<?xml version="1.0" encoding="UTF-8"?>
<svg xmlns="http://www.w3.org/2000/svg" xmlns:xlink="http://www.w3.org/1999/xlink" viewBox="0 0 51.88 38.25">
  <defs>
    <style>
      .cls-1 {
        fill: #8280b3;
      }

      .cls-2 {
        fill: none;
      }

      .cls-3 {
        isolation: isolate;
      }

      .cls-4 {
        mix-blend-mode: multiply;
      }

      .cls-5 {
        clip-path: url(#clippath);
      }
    </style>
    <clipPath id="clippath">
      <rect class="cls-2" width="51.88" height="38.25"/>
    </clipPath>
  </defs>
  <g class="cls-3">
    <g id="Layer_2">
      <g id="Capa_1">
        <g class="cls-4">
          <g class="cls-5">
            <path class="cls-1" d="M32.67,16.63c-.1-.01-.21-.05-.3-.1-.27-.17-.41-.53-.42-.87-.03-1.25.84-2.47,1.59-3.32.64-.74,1.43-1.48,2.34-1.78,1.12-.37.88,1.13.69,1.82-.25.93-.69,1.8-1.28,2.53-.57.71-1.36,1.46-2.22,1.7-.13.04-.27.05-.4.03M25.33,18.88c.05.31.08.63.11.95.11,1.14.22,2.3.08,3.44-.14,1.12-.6,2.62-1.8,2.8-1.74.27-2.26-2.18-2.52-3.56-.35-1.81-.45-3.68-.26-5.52.1-.92.26-1.83.52-2.72.15-.5.52-2.18,1.05-2.33.26-.07.49.22.61.44,1.12,1.97,1.88,4.2,2.21,6.5M47.03,11.47c-1.22-2.34-3.6-3.81-6.05-3.95-.96-.06-1.94,0-2.88-.24-1.19-.31-1.54-1.31-2.48-1.99-2.42-1.75-5.41-2.2-8.99-.85-1.25.47-2.43,1.16-3.59,1.72-.98-.57-1.96-1.26-3.09-1.77-3.48-1.56-8.41-.75-11.72,1.89-2.15,1.72-3.19,3.77-3.71,5.94-1.27,5.31.08,11.48,3.33,15.67,2.01,2.59,4.84,4.46,7.91,4.97.16.03.34.05.48-.05.11-.07.17-.2.22-.33.36-.8.73-1.6,1.09-2.4-.07.16-1.69-.44-1.86-.5-4.46-1.73-7.32-6.66-7.8-11.65-.06-.61-.11-1.21-.13-1.82-.04-1.76.13-3.56.79-5.17.87-2.11,2.57-3.53,4.6-4.11,2.02-.58,4.25-.26,6.07.86.45.28.92.67,1,1.23.07.54-.24,1.05-.52,1.51-1.44,2.38-2.23,5.21-2.43,8.03-.19,2.73.06,6.09,1.59,8.37.02.02.03.05.05.07.98,1.44,2.58,2.25,4.23,2.2,1.6-.05,3.28-.84,4.38-2.11,1.58-1.81,1.83-4.4,1.74-6.78-.12-3.17-1.2-5.93-2.61-8.66-.28-.55-.57-1.09-.85-1.65-.2-.39-.63-.95-.52-1.42.28-1.11,2.49-1.58,3.36-1.73,1.13-.19,2.3-.08,3.38.34.25.1,2.44,1.29,2.05,1.75-.02.02-.03.05-.05.06-.22.14-.44.27-.66.41-2.8,1.88-4.18,4.13-3.9,6.73.14,1.3.94,2.25,2.58,2.51,1.63.26,3.05-.37,4.29-1.45.46-.4.85-.85,1.21-1.31,1.39-1.77,1.79-3.58,1.49-5.53.68.11,1.29.13,1.79.31,2,.7,3.45,2.74,3.37,5.06-.1,2.68-2.16,4.71-4.09,6.06-.18.12-.35.24-.53.36-1.27.83-2.75,1.43-4.19,2.17l-1.14.55s.19.9.32,1.51c.31,1.42.63,2.84.84,4.29.13.86.63,3,0,3.72-.93,1.04-2.76-1.22-3.36-1.86-1.62-1.73-2.95-3.33-2.96-3.35l-2.2,2.15c.06.07,1.4,1.68,3.09,3.49,1.58,1.68,3.77,3.77,6.15,2.83,1.63-.64,2.46-2.42,2.47-4.23,0-2.31-.49-4.8-.99-7.07,1.4-.55,2.69-1.23,3.93-2.02,5.37-3.4,7.7-8.63,5.53-12.78"/>
          </g>
        </g>
      </g>
    </g>
  </g>
</svg>