<?xml version="1.0" encoding="utf-8"?>
<!-- Generator: Adobe Illustrator 18.1.1, SVG Export Plug-In . SVG Version: 6.00 Build 0)  -->
<svg version="1.1" id="Layer_1" xmlns="http://www.w3.org/2000/svg" xmlns:xlink="http://www.w3.org/1999/xlink" x="0px" y="0px"
	 viewBox="0 0 134.8 97.5" enable-background="new 0 0 134.8 97.5" xml:space="preserve">
<path fill="#393d3e" d="M131.8,22.8c-3.7-6.6-11-10.7-18.4-11.1c-2.9-0.2-5.9,0-8.8-0.7c-3.6-0.9-4.7-3.7-7.6-5.6
	C89.6,0.5,80.5-0.8,69.5,3c-3.8,1.3-7.4,3.2-11,4.8c-3-1.6-6-3.5-9.4-5C38.5-1.5,23.5,0.8,13.4,8.2C6.8,13,3.7,18.7,2.1,24.8
	c-3.9,14.9,0.2,32.2,10.1,44c6.1,7.3,14.7,12.5,24.1,14c0.5,0.1,1,0.1,1.5-0.1c0.3-0.2,0.5-0.6,0.7-0.9c1.1-2.2,2.2-4.5,3.3-6.7
	c-0.2,0.4-5.2-1.2-5.7-1.4c-13.6-4.9-22.3-18.7-23.8-32.7c-0.2-1.7-0.3-3.4-0.4-5.1c-0.1-4.9,0.4-10,2.4-14.5
	c2.6-5.9,7.8-9.9,14-11.5c6.2-1.6,13-0.7,18.5,2.4c1.4,0.8,2.8,1.9,3,3.5c0.2,1.5-0.7,2.9-1.6,4.2C44,26.5,41.6,34.5,41,42.4
	c-0.6,7.6,0.2,17.1,4.8,23.5c0.1,0.1,0.1,0.1,0.2,0.2c3,4,7.9,6.3,12.9,6.2c4.9-0.2,10-2.4,13.4-5.9c4.8-5.1,5.6-12.3,5.3-19
	c-0.4-8.9-3.7-16.7-8-24.3c-0.9-1.5-1.8-3.1-2.6-4.6c-0.6-1.1-1.9-2.7-1.6-4c0.8-3.1,7.6-4.4,10.2-4.8c3.4-0.5,7-0.2,10.3,0.9
	c0.8,0.3,7.4,3.6,6.2,4.9c-0.1,0.1-0.1,0.1-0.2,0.2c-0.7,0.4-1.4,0.7-2,1.1C81.5,22,77.3,28.3,78.1,35.6c0.4,3.7,2.9,6.3,7.9,7
	c5,0.7,9.3-1,13.1-4.1c1.4-1.1,2.6-2.4,3.7-3.7c4.2-5,5.5-10,4.5-15.5c2.1,0.3,3.9,0.4,5.5,0.9c6.1,2,10.5,7.7,10.3,14.2
	c-0.3,7.5-6.6,13.2-12.5,17c-0.5,0.3-1.1,0.7-1.6,1c-3.9,2.3-8.4,4-12.8,6.1l-3.5,1.6c0,0,0.6,2.5,1,4.2c0.9,4,1.9,8,2.5,12
	c0.4,2.4,1.9,8.4,0,10.4c-2.8,2.9-8.4-3.4-10.3-5.2c-4.9-4.9-9-9.3-9-9.4l-6.7,6c0.2,0.2,4.3,4.7,9.4,9.8
	c4.8,4.7,11.5,10.6,18.8,7.9c5-1.8,7.5-6.8,7.5-11.9c0-6.5-1.5-13.5-3-19.9c4.3-1.5,8.2-3.5,12-5.7
	C131.3,49.1,138.4,34.4,131.8,22.8z M65.6,43.6c0.1,0.9,0.3,1.8,0.3,2.7c0.3,3.2,0.7,6.5,0.2,9.7c-0.4,3.2-1.8,7.3-5.5,7.9
	c-5.3,0.8-6.9-6.1-7.7-10c-1.1-5.1-1.4-10.3-0.8-15.5c0.3-2.6,0.8-5.1,1.6-7.6c0.4-1.4,1.6-6.1,3.2-6.5c0.8-0.2,1.5,0.6,1.9,1.2
	C62.3,30.8,64.6,37.1,65.6,43.6z M88,37.3c-0.3,0-0.6-0.1-0.9-0.3c-0.8-0.5-1.2-1.5-1.3-2.4c-0.1-3.5,2.6-6.9,4.8-9.3
	c2-2.1,4.4-4.2,7.1-5c3.4-1,2.7,3.2,2.1,5.1c-0.8,2.6-2.1,5.1-3.9,7.1c-1.7,2-4.2,4.1-6.8,4.8C88.8,37.3,88.4,37.3,88,37.3z"/>
</svg>
